<svg xmlns="http://www.w3.org/2000/svg" width="1131.734" height="820.005" viewBox="0 0 1131.734 820.005">
  <g id="il_340x270" transform="translate(-76.12 243.89)">
    <path id="Path_1" data-name="Path 1" d="M271.651-233.865c-9.264,5.9-16.844,17.686-16.844,26.95,0,10.949-5.053,16.844-14.317,16-8.422-.842-13.475,1.684-10.949,5.053,5.053,8.422-67.376,84.22-80.009,84.22-4.211,0-7.58,2.527-6.738,5.9,3.369,10.949-21.9,44.636-32.846,44.636-5.9,0-10.949,9.264-10.949,21.055C99-9,100.684-9,152.059-10.682c28.635-.842,53.9-4.211,56.427-6.738,2.527-3.369,16-11.791,31.161-18.528,19.37-10.107,27.792-10.949,31.161-3.369,1.684,5.053,4.211,2.527,4.211-5.9.842-9.264,7.58-14.317,21.055-14.317,10.949,0,19.371-5.053,18.528-10.949,0-5.053,3.369-10.949,7.58-12.633,5.053-.842,8.422,3.369,8.422,8.422,0,15.16,58.112,69.06,61.48,58.112,1.684-5.053,6.738-7.58,10.949-4.211,4.211,2.527,7.58.842,7.58-4.211s13.475-10.948,31.161-14.317c16.844-3.369,40.426-10.949,52.216-16.844C505.782-62.9,520.1-67.952,525.152-67.952c5.9,0,12.633-5.9,15.16-13.475,2.526-6.738,8.422-10.949,12.633-8.422s10.106-5.053,12.633-16c3.369-11.791,8.422-20.213,11.791-17.686,3.369,1.684,5.053-10.949,3.369-29.477-2.526-24.424.842-37.057,12.633-48.005,8.422-7.58,11.791-11.791,5.9-7.58-5.9,3.369-11.791.842-15.16-7.58-3.369-7.58-7.58-11.791-10.949-9.264-2.527,3.369-10.949.842-17.686-5.053-16.844-13.475-69.9-13.475-84.22.842-6.738,5.9-15.16,7.58-20.213,5.053-5.053-3.369-16,2.527-23.582,13.475-13.475,18.528-33.688,17.686-33.688-.842,0-5.053,4.211-5.9,8.422-3.369,5.053,2.527,8.422.842,8.422-4.211,0-5.9-6.738-7.58-17.686-4.211-11.791,4.211-16,2.527-12.633-2.527,3.369-5.9-4.211-7.58-23.582-4.211-16,2.527-30.319.842-33.688-5.053C315.445-247.34,292.706-246.5,271.651-233.865Zm257.713,38.741c5.9.842,4.211,24.424-3.369,47.163-10.948,32.846-132.225,91.8-132.225,64.007,0-5.9-3.369-7.58-8.422-5.053-4.211,2.527-8.422.842-8.422-5.053s21.9-32,48.848-58.954C473.778-201.019,481.358-204.388,529.363-195.124Z" transform="translate(169.817 0)"/>
    <path id="Path_2" data-name="Path 2" d="M255.7-233.7c-8.422,1.684-12.633,13.475-13.475,32.846-.842,16.844-7.58,35.372-16.844,43.794-8.422,7.58-24.424,27.792-36.215,44.636-10.949,16.844-24.424,29.477-30.319,26.95-19.37-7.58-6.738,24.424,14.317,36.214,22.739,12.633,35.372,15.16,30.319,5.053-4.211-5.9,8.422-21.055,23.582-27.793,5.053-1.684,7.58-8.422,7.58-14.317-.842-5.053,3.369-10.106,9.264-10.106,12.633,0,21.055,19.371,24.424,57.27,2.526,18.528,7.58,23.581,29.477,25.266l26.95,2.526-5.9-42.11c-5.053-36.214-3.369-42.952,8.422-42.952A13.3,13.3,0,0,0,340.766-109.9c0-6.738,4.211-10.106,8.422-7.58,5.053,2.527,8.422,0,9.264-5.9s4.211-1.684,7.58,10.106l6.738,21.055.842-22.739c.842-16,9.264-26.95,30.319-40.426,16-10.106,27.793-21.055,25.266-25.266s0-8.422,5.053-10.106-.842-13.475-12.633-26.108c-19.371-21.055-25.266-22.739-86.746-21.9C298.656-237.912,263.283-236.228,255.7-233.7Z" transform="translate(542.856 36.893)"/>
    <path id="Path_3" data-name="Path 3" d="M300.917-208.85c-14.317,14.317-24.424,26.108-22.739,26.108s-4.211,12.633-13.475,26.95c-8.422,15.16-21.9,27.792-30.319,27.792-14.317,0-21.9,10.949-26.108,37.057-.842,7.58-9.264,21.9-18.528,32.846s-16,23.582-13.475,29.477c5.9,19.37,32.846,10.106,58.112-19.371,21.9-25.266,26.95-27.793,36.215-16.844,5.9,6.738,8.422,26.108,6.738,42.11L273.967,7.595,309.339,5.91c20.213-1.684,34.53-5.053,32.846-8.422-5.053-7.58,44.637-74.956,55.585-74.956,4.211,0,7.58-6.738,5.9-15.16-1.684-7.58,2.527-13.475,7.58-12.633,5.9,1.684,12.633-6.738,16-18.528,2.527-11.791,8.422-21.055,12.633-21.055s7.58-7.58,7.58-16.844,3.369-16.844,7.58-16.844,10.106-5.9,12.633-13.475c8.422-22.739-49.69-8.422-73.271,16.844-16.844,17.686-22.739,19.371-33.688,10.949-7.58-5.053-15.159-24.424-16-41.268C341.343-243.38,333.763-244.223,300.917-208.85Z" transform="translate(739.354 68.47)"/>
    <path id="Path_4" data-name="Path 4" d="M140.615-195.676c0,10.949,5.9,21.055,12.633,24.424,15.16,5.053,16.844,22.739,2.527,19.37-5.9-.842-10.949,8.422-10.949,23.582-.842,13.475-7.58,35.372-16,48.005C120.4-66.819,115.349-51.66,117.875-44.922c7.58,18.528,34.53,6.738,51.374-21.055,7.58-13.475,18.528-24.424,22.739-24.424,5.053,0,6.738-2.527,5.053-6.738-2.527-3.369,7.58-20.213,22.739-37.9,21.9-26.108,32.846-32.846,59.8-33.688,19.37-.842,33.688,2.527,35.372,8.422,2.527,6.738-3.369,10.949-16,10.949-15.16,0-16.844,1.684-6.738,8.422,10.106,5.9,10.106,8.422.842,8.422-5.9,0-9.264,5.053-6.738,12.633,3.369,6.738,1.684,14.317-1.684,16.844-12.633,6.738-16,48.848-6.738,69.06,10.106,23.582,37.9,32,75.8,24.424,14.317-3.369,35.372-6.738,45.479-7.58,10.949-.842,18.529-5.9,16.844-11.791-.842-5.053,11.791-24.424,28.635-42.11,22.739-23.582,29.477-38.741,27.792-55.585-.842-12.633,1.684-22.739,5.9-22.739s7.58-4.211,7.58-9.264c0-4.211-3.369-5.9-8.422-3.369-4.211,2.527-8.422.842-8.422-4.211s-9.264-18.528-20.213-29.477c-20.213-20.213-21.9-20.213-54.743-8.422-19.371,6.738-34.53,8.422-34.53,4.211,0-5.053-5.9-8.422-13.475-8.422-10.949,0-11.791,2.527-4.211,10.949,16,20.213-.842,23.582-17.686,3.369-14.317-16-24.424-18.528-100.222-19.371C143.141-214.2,140.615-214.2,140.615-195.676Z" transform="translate(305.064 224.577)"/>
    <path id="Path_5" data-name="Path 5" d="M226.707-181.578c0,4.211-6.738,8.422-14.317,8.422-10.949,0-11.791,2.527-4.211,6.738,7.58,5.053,3.369,13.475-13.475,32-13.475,13.475-30.319,37.9-38.741,53.9-7.58,16.844-24.424,41.268-37.057,55.585-26.95,30.319-48.848,69.06-41.268,75.8,12.633,12.633,42.11-10.106,61.48-49.69,18.528-35.372,23.582-40.426,30.319-28.635,8.422,16.844.842,50.532-10.106,43.794-10.106-6.738,5.9,48.005,17.686,58.112,7.58,6.738,8.422,6.738,4.211-1.684-4.211-6.738,0-10.106,10.106-10.106,12.633,0,18.528-7.58,22.739-32,3.369-16.844,10.106-36.214,14.317-42.11,5.053-5.9,6.738-12.633,4.211-16-3.369-2.527-1.684-10.107,4.211-16.844,5.053-5.9,6.738-13.475,4.211-16.844-10.106-10.106,10.949-35.372,25.266-30.319,8.422,3.369,11.791,1.684,8.422-3.369-2.527-4.211,17.686-21.055,44.636-37.057,63.165-36.214,68.218-47.163,21.055-46.321-20.213.842-34.53,3.369-32.846,5.9,3.369,6.738-17.686,16-35.372,16-6.738,0-11.791-7.58-11.791-16.844C260.4-184.1,254.5-190,243.551-190,234.287-190,226.707-186.631,226.707-181.578Z" transform="translate(0 399.974)"/>
    <path id="Path_6" data-name="Path 6" d="M275.041-177.747c-3.369,5.053-9.264,6.738-13.475,3.369-4.211-2.527-6.738-1.684-5.9,2.527,3.369,11.791-19.37,45.479-27.792,40.426-4.211-3.369-7.58,0-7.58,6.738s-7.58,14.317-16.844,16.844S186.61-97.738,186.61-90.158s-4.211,13.475-8.422,13.475c-5.053,0-8.422,6.738-6.738,14.317,1.684,8.422-1.684,15.16-7.58,15.16-13.475,0-24.424,12.633-10.949,12.633,8.422,0,8.422,2.527,0,12.633-5.9,6.738-7.58,12.633-4.211,12.633s1.684,5.9-4.211,12.633-13.475,10.106-17.686,8.422c-3.369-2.527-6.738,2.527-6.738,10.106,0,8.422-2.527,26.108-5.9,39.583-3.369,15.16-2.527,22.739,2.527,19.371,4.211-2.527,31.161,0,60.638,5.9,44.637,9.264,54.743,9.264,64.849-.842,19.371-19.371,13.475-34.53-14.317-40.426C199.243,38.7,188.295,20.17,201.77-.043c5.053-7.58,18.528-33.688,30.319-58.112,11.791-23.582,25.266-43.794,29.477-43.794,5.053,0,8.422-2.527,8.422-6.738-2.527-16,1.684-27.793,9.264-22.739,5.053,2.527,5.9-.842,3.369-7.58-3.369-10.106,0-13.475,14.317-14.317,10.949,0,15.16-2.527,10.106-5.053-5.9-1.684-10.949-9.264-10.949-16C296.1-187.853,282.621-190.38,275.041-177.747Z" transform="translate(267.49 429.831)"/>
    <path id="Path_7" data-name="Path 7" d="M296.607-175.736c0,4.211-4.211,5.9-8.422,3.369-5.053-3.369-8.422-2.527-7.58,1.684,3.369,17.686-1.684,28.635-10.949,22.739-6.738-4.211-7.58-1.684-4.211,7.58,2.527,8.422,1.684,14.317-3.369,14.317s-6.738,3.369-3.369,7.58c2.527,4.211-1.684,13.475-8.422,20.213-6.738,7.58-12.633,16-12.633,20.213S226.7-59.512,214.071-45.2s-21.9,30.319-21.055,34.53c1.684,5.053-2.526,15.16-10.106,21.9-6.738,7.58-12.633,16.844-12.633,21.9s-7.58,9.264-16.844,9.264-16.844,5.9-16.844,12.633S140.8,67.66,146.7,67.66c5.053,0,2.527,5.9-6.737,12.633-14.318,10.949-14.318,11.791-.842,12.633,7.58,0,14.317,3.369,14.317,6.738,0,4.211,5.053,7.58,10.949,8.422,5.053.842,19.37,3.369,31.161,5.053s25.266,4.211,29.477,4.211c5.053.842,3.369,4.211-2.527,8.422-16.844,10.106,45.479,18.528,69.9,9.264,10.106-4.211,21.9-5.053,24.424-2.527,7.58,8.422,5.9-8.422-3.369-22.739-5.053-7.58-4.211-14.317,2.527-18.528,5.9-3.369-1.684-4.211-16.844-1.684-32,6.738-72.429-2.526-65.692-13.475,2.527-5.053,1.684-8.422-1.684-8.422-4.211,0-8.422-9.264-9.264-21.055C221.651,33.972,225.02,25.55,232.6,25.55c6.738,0,10.948-8.422,10.106-18.528,0-10.949,4.211-19.371,10.106-20.213C273.867-15.718,275.552-16.56,264.6-23.3c-8.422-5.9-6.738-14.317,7.58-41.268,10.106-19.371,22.739-33.688,27.792-32.846,5.053,1.684,6.738.842,3.369-.842-4.211-2.527-6.738-10.106-6.738-16.844,0-10.949,1.684-11.791,15.16-1.684,12.633,10.949,13.475,10.106,3.369-2.526-8.422-10.106-9.264-18.528-2.526-31.161C325.242-173.209,324.4-185,309.24-185,302.5-185,296.607-180.789,296.607-175.736Z" transform="translate(393.309 437.084)"/>
  </g>
</svg>
